#!OML:ASF E:\Steps\Project 1\Capture day 1\Session 2\Subject.ASF
:FULLY-SPECIFIED
:DEGREES
800
root 8.66186 22.7329 -19.2322 -156.771 2.48592 181.224
lowerback -23.5024 -4.35736 -6.00239
upperback 0.289686 -3.73077 -0.589116
thorax 13.9436 -1.96724 1.47411
lowerneck -3.05909 -1.66521 -1.96076
upperneck 21.6882 -1.50277 4.30265
head 7.16856 0.0360598 1.69572
rclavicle -2.88238e-014 4.77083e-015
rhumerus -50.6067 -18.6375 -68.4958
rradius 29.3234
rwrist 2.87807
rhand -6.36551 -54.6551
rfingers 7.12502
rthumb 19.481 -83.6992
lclavicle -2.88238e-014 4.77083e-015
lhumerus -23.9565 -3.04772 80.7704
lradius 32.1754
lwrist -0.582039
lhand -23.1547 -14.5555
lfingers 7.12502
lthumb 3.29368 15.3988
rfemur -38.2071 10.9617 17.7118
rtibia 31.0272
rfoot -23.8461 -9.8973
rtoes -41.0006
lfemur -28.4477 -7.54244 -19.8476
ltibia 15.3619
lfoot -9.166 2.80919
ltoes -32.9882
801
root 8.66488 22.7235 -19.2807 -156.887 2.10981 181.301
lowerback -23.5524 -4.36137 -5.82804
upperback 0.296169 -3.7888 -0.54709
thorax 13.9742 -1.98441 1.39947
lowerneck -2.53702 -1.83602 -1.98783
upperneck 21.5181 -1.72678 4.363
head 7.0289 -0.067663 1.70389
rclavicle -5.56597e-015 3.18055e-015
rhumerus -50.7201 -19.1039 -68.4351
rradius 29.2283
rwrist 2.91198
rhand -6.3229 -54.1519
rfingers 7.12502
rthumb 19.5219 -83.1918
lclavicle -5.56597e-015 3.18055e-015
lhumerus -24.1521 -3.22905 80.8961
lradius 31.7436
lwrist -0.414445
lhand -23.2178 -14.5256
lfingers 7.12502
lthumb 3.23277 15.4296
rfemur -37.4761 11.4883 17.6879
rtibia 29.2639
rfoot -23.7054 -9.9325
rtoes -42.5766
lfemur -28.1591 -7.49561 -19.8065
ltibia 15.383
lfoot -9.24978 2.42639
ltoes -32.7463
802
root 8.6657 22.7195 -19.3204 -156.885 1.77499 181.178
lowerback -23.5874 -4.44063 -5.85972
upperback 0.240311 -3.87855 -0.530015
thorax 13.9391 -2.02317 1.40546
lowerneck -2.64604 -1.84206 -1.9745
upperneck 21.6627 -1.72059 4.33482
head 7.09492 -0.0578719 1.69512
rclavicle 2.38542e-015 1.27222e-014
rhumerus -50.8916 -19.1741 -68.6236
rradius 29.5256
rwrist 2.5783
rhand -5.62044 -54.898
rfingers 7.12502
rthumb 20.1972 -83.868
lclavicle 2.38542e-015 1.27222e-014
lhumerus -24.2435 -3.28306 80.9852
lradius 31.1528
lwrist -0.38533
lhand -23.211 -14.6647
lfingers 7.12502
lthumb 3.2393 15.2904
rfemur -36.9116 11.8366 17.4179
rtibia 27.5913
rfoot -23.4259 -9.50027
rtoes -42.0316
lfemur -28.0321 -7.50985 -19.9745
ltibia 15.3829
lfoot -9.27461 2.04533
ltoes -32.5654
803
root 8.66904 22.7143 -19.3557 -156.955 1.4107 181.161
lowerback -23.4621 -4.53194 -5.80565
upperback 0.173771 -4.02539 -0.501321
thorax 13.7995 -2.08313 1.36449
lowerneck -2.47061 -1.86954 -1.89577
upperneck 21.6672 -1.74332 4.29777
head 7.06516 -0.0607401 1.66922
rclavicle 2.98177e-015 -7.95139e-015
rhumerus -51.1851 -19.0814 -68.9825
rradius 30.0053
rwrist 2.22884
rhand -5.26231 -55.3003
rfingers 7.12502
rthumb 20.5414 -84.2335
lclavicle 2.98177e-015 -7.95139e-015
lhumerus -24.3957 -3.15226 80.9447
lradius 30.5591
lwrist -0.5205
lhand -23.083 -14.9167
lfingers 7.12502
lthumb 3.36298 15.0365
rfemur -36.2583 12.1687 17.3178
rtibia 26.0377
rfoot -23.2974 -9.14151
rtoes -42.1786
lfemur -27.8503 -7.58699 -19.9523
ltibia 15.3666
lfoot -9.30529 1.73243
ltoes -32.2312
804
root 8.66997 22.7088 -19.4014 -156.943 1.06782 180.848
lowerback -23.8928 -4.62843 -6.03883
upperback 0.313889 -4.05741 -0.474827
thorax 14.2328 -2.12154 1.48429
lowerneck -2.70185 -1.99196 -2.08843
upperneck 21.8203 -1.88916 4.25523
head 7.16302 -0.145941 1.67942
rclavicle 6.95746e-015 -2.38542e-014
rhumerus -51.059 -19.4662 -68.9922
rradius 30.1528
rwrist 2.1664
rhand -5.4974 -55.0872
rfingers 7.12502
rthumb 20.3154 -84.0447
lclavicle 6.95746e-015 -2.38542e-014
lhumerus -24.1862 -3.02808 81.1735
lradius 29.9899
lwrist -0.564313
lhand -22.8426 -14.8441
lfingers 7.12502
lthumb 3.59512 15.1054
rfemur -35.6188 12.1476 16.9849
rtibia 24.5335
rfoot -22.2166 -8.77035
rtoes -43.5838
lfemur -27.6724 -7.76789 -20.3321
ltibia 15.3192
lfoot -9.352 1.3854
ltoes -31.9494
805
root 8.67344 22.6999 -19.4466 -156.914 0.751174 180.734
lowerback -24.2425 -4.69471 -6.04635
upperback 0.33664 -4.11031 -0.46399
thorax 14.4643 -2.14495 1.46134
lowerneck -2.87568 -1.96842 -2.17195
upperneck 21.9691 -1.86802 4.40574
head 7.24384 -0.121606 1.7464
rclavicle 2.78299e-015 7.95139e-016
rhumerus -50.9247 -19.5648 -69.2366
rradius 30.0827
rwrist 1.91931
rhand -5.80184 -55.1922
rfingers 7.12502
rthumb 20.0228 -84.1805
lclavicle 2.78299e-015 7.95139e-016
lhumerus -24.2134 -2.87967 81.1889
lradius 29.4981
lwrist -0.727437
lhand -22.4097 -14.4641
lfingers 7.12502
lthumb 4.01314 15.4778
rfemur -34.9806 12.2124 16.9201
rtibia 23.0987
rfoot -21.7543 -8.05432
rtoes -41.8835
lfemur -27.5581 -7.80517 -20.4729
ltibia 15.3503
lfoot -9.38712 1.06722
ltoes -31.2183
806
root 8.67999 22.6872 -19.4849 -157.011 0.433162 180.898
lowerback -24.2123 -4.70423 -5.82818
upperback 0.304994 -4.20052 -0.394856
thorax 14.4046 -2.17273 1.38673
lowerneck -2.36542 -2.07747 -2.2522
upperneck 21.8299 -2.02482 4.60923
head 7.11585 -0.182944 1.81633
rclavicle 3.8763e-014 1.43125e-014
rhumerus -50.885 -19.2003 -69.8361
rradius 30.2522
rwrist 1.33261
rhand -5.8503 -55.2054
rfingers 7.12502
rthumb 19.9763 -84.1986
lclavicle 3.8763e-014 1.43125e-014
lhumerus -24.3557 -2.6516 81.096
lradius 28.9776
lwrist -0.998459
lhand -22.2215 -14.4477
lfingers 7.12502
lthumb 4.19491 15.4907
rfemur -34.3019 12.3632 17.242
rtibia 21.97
rfoot -20.6206 -7.17916
rtoes -37.6525
lfemur -27.4789 -7.59554 -20.2817
ltibia 15.6217
lfoot -9.53418 0.641623
ltoes -30.3961
807
root 8.67718 22.678 -19.5289 -157.145 0.162286 180.585
lowerback -24.2159 -4.82474 -5.98127
upperback 0.354541 -4.30479 -0.45339
thorax 14.4823 -2.22867 1.36429
lowerneck -2.84678 -1.98503 -2.12937
upperneck 22.0391 -1.90314 4.52848
head 7.26337 -0.116559 1.77877
rclavicle 3.37934e-015 3.18055e-015
rhumerus -50.7379 -19.0332 -70.3604
rradius 30.4873
rwrist 1.08377
rhand -5.85648 -54.7484
rfingers 7.12502
rthumb 19.9703 -83.7422
lclavicle 3.37934e-015 3.18055e-015
lhumerus -24.4613 -2.4101 81.0491
lradius 28.4908
lwrist -1.00453
lhand -22.3779 -14.5986
lfingers 7.12502
lthumb 4.04381 15.3427
rfemur -33.5374 11.9573 17.1641
rtibia 21.0788
rfoot -17.0306 -7.03503
rtoes -42.3828
lfemur -27.2642 -7.54492 -20.7434
ltibia 15.8455
lfoot -9.71421 0.120593
ltoes -29.7968
